<?xml version="1.0" encoding="iso-8859-1"?>
<!-- Generator: Adobe Illustrator 19.0.0, SVG Export Plug-In . SVG Version: 6.00 Build 0)  -->
<svg version="1.1" id="Capa_1" xmlns="http://www.w3.org/2000/svg" xmlns:xlink="http://www.w3.org/1999/xlink" x="0px" y="0px"
	 viewBox="0 0 512 512" style="enable-background:new 0 0 512 512;" xml:space="preserve">
<g>
	<g>
		<g>
			<path d="M338.286,236.147c0.005-10.939,6.017-20.991,15.652-26.17l15.295-8.272v-1.17c-2.116-3.688-3.853-7.582-5.183-11.621
				c-3.99-3.17-6.347-7.963-6.424-13.058v-8.384c0.034-3.787,1.425-7.436,3.92-10.286v-6.295
				c-0.459-7.645,2.104-15.165,7.138-20.937c7.567-7.779,18.172-11.838,29-11.098c10.846-0.75,21.473,3.305,29.063,11.089
				c5.19,5.999,7.765,13.824,7.152,21.732l0.022,5.536c2.472,2.85,3.848,6.487,3.884,10.259v8.384
				c-0.079,5.096-2.438,9.888-6.429,13.058c-1.328,4.039-3.063,7.933-5.179,11.621v1.17l15.295,8.277
				c9.634,5.178,15.646,15.228,15.652,26.165v1.567h18.286v-128c-0.007-5.047-4.096-9.136-9.143-9.143H320v137.143h18.286V236.147z"
				/>
			<path d="M338.286,391.576c0.005-10.939,6.017-20.991,15.652-26.17l15.295-8.272v-1.17c-2.116-3.688-3.853-7.582-5.183-11.621
				c-3.99-3.17-6.347-7.963-6.424-13.058v-8.384c0.034-3.787,1.425-7.436,3.92-10.286v-6.295
				c-0.459-7.645,2.104-15.165,7.138-20.937c7.567-7.779,18.172-11.838,29-11.098c10.846-0.75,21.473,3.305,29.063,11.089
				c5.19,5.999,7.765,13.824,7.152,21.733l0.022,5.536c2.472,2.85,3.848,6.487,3.884,10.259v8.384
				c-0.079,5.096-2.438,9.888-6.429,13.058c-1.328,4.039-3.063,7.933-5.179,11.621v1.17l15.295,8.277v0
				c9.634,5.178,15.646,15.228,15.652,26.165v1.567h9.143c5.047-0.007,9.136-4.096,9.143-9.143V256H320v137.143h18.286V391.576z"/>
			<path d="M267.752,30.177l19.984-19.984c-18.974-13.591-44.497-13.591-63.471,0l19.984,19.984
				C251.654,26.512,260.346,26.512,267.752,30.177z"/>
			<path d="M381.415,371.335l-18.786,10.156c-3.72,1.992-6.046,5.865-6.058,10.085v1.567h82.286v-1.567
				c-0.011-4.219-2.338-8.091-6.058-10.08l-18.871-10.21c-4.064-2.285-6.417-6.734-6.018-11.379v-6.496
				c-0.001-1.756,0.505-3.475,1.455-4.951c2.334-3.68,4.105-7.689,5.255-11.893c0.564-2.105,1.86-3.94,3.656-5.174
				c0.438-0.289,0.853-0.612,1.241-0.964v-6.442c-0.143-0.129-0.33-0.295-0.58-0.5c-2.085-1.738-3.29-4.312-3.29-7.027v-10.147
				c0.342-3.168-0.591-6.343-2.594-8.821c-4.206-3.725-9.784-5.51-15.37-4.92c-5.563-0.584-11.115,1.202-15.295,4.919
				c-1.862,2.241-2.79,5.112-2.594,8.018l0.036,10.942c-0.001,2.737-1.226,5.329-3.339,7.067c-0.25,0.201-0.438,0.366-0.58,0.495
				v6.415c0.385,0.352,0.797,0.673,1.232,0.96c1.801,1.236,3.103,3.073,3.67,5.183c1.149,4.202,2.918,8.209,5.25,11.888
				c0.951,1.476,1.456,3.195,1.455,4.951v6.496C387.901,364.583,385.514,369.052,381.415,371.335z"/>
			<path d="M262.363,48.329c-3.525-3.486-9.199-3.486-12.724,0l-0.066,0.1l-0.1,0.066c-2.893,2.95-3.448,7.474-1.353,11.036
				c2.094,3.562,6.317,5.276,10.302,4.182c3.984-1.094,6.74-4.724,6.722-8.856c-0.005-2.381-0.943-4.665-2.614-6.362l-0.1-0.066
				L262.363,48.329z"/>
			<path d="M381.415,215.906l-18.786,10.156c-3.72,1.992-6.046,5.865-6.058,10.085v1.567h82.286v-1.567
				c-0.011-4.219-2.338-8.091-6.058-10.08l-18.871-10.21c-4.064-2.285-6.417-6.734-6.018-11.379v-6.496
				c-0.001-1.756,0.505-3.475,1.455-4.951c2.334-3.68,4.105-7.689,5.255-11.893c0.564-2.105,1.86-3.94,3.656-5.174
				c0.438-0.289,0.853-0.612,1.241-0.964v-6.442c-0.143-0.129-0.33-0.295-0.58-0.5c-2.085-1.738-3.29-4.312-3.29-7.027v-10.147
				c0.342-3.168-0.591-6.343-2.594-8.821c-4.206-3.725-9.784-5.51-15.37-4.92c-5.563-0.584-11.115,1.202-15.295,4.919
				c-1.862,2.241-2.79,5.112-2.594,8.018l0.036,10.943c-0.001,2.736-1.226,5.329-3.339,7.067c-0.25,0.201-0.438,0.366-0.58,0.495
				V175c0.385,0.352,0.797,0.673,1.232,0.96c1.801,1.236,3.103,3.073,3.67,5.183c1.149,4.202,2.918,8.209,5.25,11.888
				c0.951,1.476,1.456,3.195,1.455,4.951v6.496C387.901,209.154,385.514,213.623,381.415,215.906z"/>
			<rect x="210.286" y="448" width="91.429" height="27.429"/>
			<path d="M347.429,493.714H164.571c-11.62,0.013-21.975,7.335-25.862,18.286h234.58
				C369.404,501.049,359.049,493.727,347.429,493.714z"/>
			<path d="M484.571,64H328.508c-0.779,6.276-2.376,12.424-4.75,18.286h142.528c15.142,0.017,27.412,12.287,27.429,27.429V384
				c-0.017,15.142-12.287,27.412-27.429,27.429H45.714C30.573,411.412,18.302,399.142,18.286,384V109.714
				c0.017-15.142,12.287-27.412,27.429-27.429h142.528c-2.374-5.862-3.971-12.009-4.75-18.286H27.429
				C12.287,64.017,0.017,76.287,0,91.429v310.857c0.017,15.142,12.287,27.412,27.429,27.429h457.143
				c15.142-0.017,27.412-12.287,27.429-27.429V91.429C511.984,76.287,499.713,64.017,484.571,64z"/>
			<path d="M219.414,95.847c20.828,18.643,52.344,18.643,73.172,0c20.828-18.643,24.308-49.966,8.078-72.725L280.68,43.105
				c1.787,3.661,2.727,7.678,2.748,11.752c0,15.148-12.28,27.429-27.429,27.429s-27.429-12.28-27.429-27.429
				c0.022-4.074,0.961-8.091,2.748-11.752l-19.984-19.984C195.106,45.881,198.586,77.204,219.414,95.847z"/>
			<path d="M130.522,326.228l-39.375,21.937c-11.188,6.322-18.077,18.204-18.004,31.054l-0.001,13.925h192.001l-0.001-13.924
				c0.071-12.849-6.818-24.731-18.004-31.054l-39.451-21.978c-5.143-3.236-7.965-9.144-7.25-15.179v-13.996
				c0-1.715,0.482-3.395,1.393-4.848c5.466-8.895,9.6-18.542,12.272-28.634c0.544-2.095,1.814-3.929,3.585-5.174
				c4.723-3.326,7.018-6.268,7.018-8.995v-18.058c0-1.946-1.42-3.955-4.893-6.933c-2.028-1.736-3.195-4.272-3.196-6.942v-21.853
				c0.797-9.405-2.075-18.753-8.013-26.089c-10.466-10.254-24.909-15.394-39.5-14.058c-14.555-1.326-28.956,3.813-39.384,14.054
				c-5.793,7.113-8.647,16.172-7.978,25.321l0.036,22.607c-0.001,2.691-1.186,5.245-3.241,6.982
				c-3.518,2.978-4.955,4.978-4.955,6.911v18.058c0,2.728,2.295,5.67,7.013,8.995c1.768,1.247,3.036,3.08,3.58,5.174
				c2.666,10.091,6.803,19.734,12.277,28.621c0.912,1.458,1.396,3.142,1.397,4.862v13.996
				C138.55,317.071,135.698,322.995,130.522,326.228z"/>
			<path d="M36.571,109.714V384c0.007,5.047,4.096,9.136,9.143,9.143h9.143v-13.924c-0.07-19.482,10.411-37.477,27.393-47.027
				l37.308-20.785l0.004-0.397v-11.438c-5.199-8.892-9.299-18.383-12.21-28.263c-7.203-5.052-11.656-13.158-12.058-21.946v-18.058
				c0.209-6.839,3.164-13.306,8.196-17.942v-17.768c-0.947-13.79,3.478-27.412,12.348-38.013
				c11.594-13.509,29.513-20.384,53.263-20.437c23.821,0.054,41.764,6.929,53.366,20.424c9.026,10.819,13.476,24.732,12.402,38.781
				l0.026,17.062c4.976,4.646,7.89,11.088,8.094,17.893v18.058c-0.404,8.79-4.861,16.896-12.067,21.946
				c-2.889,9.887-6.987,19.38-12.201,28.263v11.438l0.004,0.397l37.308,20.786c16.981,9.551,27.462,27.544,27.393,47.027v13.925
				h18.286v-281.28c-15.101,12.169-34.429,17.819-53.707,15.7c-19.278-2.119-36.917-11.833-49.013-26.992H45.714
				C40.668,100.578,36.578,104.668,36.571,109.714z"/>
		</g>
	</g>
</g>
<g>
</g>
<g>
</g>
<g>
</g>
<g>
</g>
<g>
</g>
<g>
</g>
<g>
</g>
<g>
</g>
<g>
</g>
<g>
</g>
<g>
</g>
<g>
</g>
<g>
</g>
<g>
</g>
<g>
</g>
</svg>
