<?xml version="1.0" encoding="iso-8859-1"?>
<!-- Generator: Adobe Illustrator 19.0.0, SVG Export Plug-In . SVG Version: 6.00 Build 0)  -->
<svg version="1.1" id="Layer_1" xmlns="http://www.w3.org/2000/svg" xmlns:xlink="http://www.w3.org/1999/xlink" x="0px" y="0px"
	 viewBox="0 0 512 512" style="enable-background:new 0 0 512 512;" xml:space="preserve">
<g>
	<g>
		<path d="M336.345,366.724c43.553-53.807,90.322-127.431,90.322-196.057C426.667,76.563,350.104,0,256,0
			S85.333,76.563,85.333,170.667c0,68.626,46.768,142.25,90.322,196.057c-68.363,6.663-154.322,24.241-154.322,70.609
			C21.333,509.906,231.979,512,256,512s234.667-2.094,234.667-74.667C490.667,390.965,404.708,373.387,336.345,366.724z
			 M170.667,170.667c0-47.052,38.271-85.333,85.333-85.333s85.333,38.281,85.333,85.333C341.333,217.719,303.062,256,256,256
			S170.667,217.719,170.667,170.667z M256,469.333c-104.875,0-173.667-19.177-189.792-32c13.641-10.848,65.087-26.198,144.07-30.684
			c20.846,22.411,36.569,36.788,38.576,38.6c2.042,1.833,4.583,2.75,7.146,2.75c2.562,0,5.104-0.917,7.146-2.75
			c2.007-1.813,17.729-16.189,38.576-38.6c78.983,4.486,130.43,19.836,144.07,30.684C429.667,450.156,360.875,469.333,256,469.333z"
			/>
	</g>
</g>
<g>
</g>
<g>
</g>
<g>
</g>
<g>
</g>
<g>
</g>
<g>
</g>
<g>
</g>
<g>
</g>
<g>
</g>
<g>
</g>
<g>
</g>
<g>
</g>
<g>
</g>
<g>
</g>
<g>
</g>
</svg>
