<svg id="Capa_1" enable-background="new 0 0 465.884 465.884" height="512" viewBox="0 0 465.884 465.884" width="512" xmlns="http://www.w3.org/2000/svg"><path d="m449.496 225.344c10.523-19.914 16.388-41.972 16.388-65.196 0-88.448-84.737-160.147-189.265-160.147-95.457 0-174.19 59.856-187.173 137.596 20.847-9.334 43.632-15.746 67.69-18.842 20.464-35.578 66.213-60.519 119.483-60.519 72.254 0 131.029 45.724 131.029 101.912 0 13.109-3.242 25.89-9.64 37.975-4.841 9.169-8.28 18.733-10.651 28.439 12.892 24.125 20.29 50.887 20.29 79.174 0 4.907-.387 9.739-.818 14.559h59.053l-19.011-42.774c-7.478-16.828-5.978-35.896 2.625-52.177z"/><path d="m189.265 145.589c-104.528 0-189.265 71.699-189.265 160.147 0 23.224 5.865 45.283 16.388 65.196 8.603 16.281 10.103 35.349 2.623 52.177l-19.011 42.774h203.824l-1.242-.569c98.288-5.804 175.948-74.936 175.948-159.578-.001-88.448-84.738-160.147-189.265-160.147zm-87.353 203.824c-8.04 0-14.559-6.519-14.559-14.559 0-8.042 6.519-14.559 14.559-14.559s14.559 6.517 14.559 14.559c0 8.04-6.519 14.559-14.559 14.559zm87.353 0c-8.04 0-14.559-6.519-14.559-14.559 0-8.042 6.519-14.559 14.559-14.559s14.559 6.517 14.559 14.559c0 8.04-6.519 14.559-14.559 14.559zm87.353 0c-8.04 0-14.559-6.519-14.559-14.559 0-8.042 6.519-14.559 14.559-14.559s14.559 6.517 14.559 14.559c-.001 8.04-6.519 14.559-14.559 14.559z"/></svg>